
<svg version="1.1" xmlns="http://www.w3.org/2000/svg" viewBox="0 0 673.9173187791075 727.638056078219" width="673.9173187791075" height="727.638056078219">
  <!-- svg-source:excalidraw -->
  
  <defs>
    <style class="style-fonts">
      
    </style>
    
  </defs>
  <g stroke-linecap="round"><g transform="translate(74.39458175769869 10.489236846723088) rotate(0 262.56407763185507 353.32979119238644)" fill-rule="evenodd"><path d="M0 0 L-64.39 -0.11 L178.55 530.81 L399.46 56.31 L498.12 57.9 L227.32 639.79 L260.22 707.15 L589.52 -0.16 L362.27 -0.43 L261.95 213.68 L164.85 -0.49 L100.39 -0.49 L230.07 285.74 L178.66 387.94 L0 0" stroke="none" stroke-width="0" fill="#ffffff" fill-rule="evenodd"></path><path d="M0 0 C-25.21 -0.04, -50.41 -0.08, -64.39 -0.11 M0 0 C-19.95 -0.03, -39.89 -0.07, -64.39 -0.11 M-64.39 -0.11 C13 169.04, 90.4 338.18, 178.55 530.81 M-64.39 -0.11 C11.92 166.66, 88.23 333.42, 178.55 530.81 M178.55 530.81 C263.55 348.24, 348.55 165.67, 399.46 56.31 M178.55 530.81 C235.86 407.72, 293.16 284.63, 399.46 56.31 M399.46 56.31 C424.61 56.72, 449.76 57.12, 498.12 57.9 M399.46 56.31 C434.73 56.88, 470 57.45, 498.12 57.9 M498.12 57.9 C400.01 268.71, 301.9 479.52, 227.32 639.79 M498.12 57.9 C428.22 208.09, 358.33 358.28, 227.32 639.79 M227.32 639.79 C240.35 666.47, 253.38 693.15, 260.22 707.15 M227.32 639.79 C239.21 664.13, 251.09 688.47, 260.22 707.15 M260.22 707.15 C388.23 432.2, 516.23 157.26, 589.52 -0.16 M260.22 707.15 C368.94 473.62, 477.67 240.09, 589.52 -0.16 M589.52 -0.16 C543.24 -0.21, 496.96 -0.27, 362.27 -0.43 M589.52 -0.16 C543.38 -0.21, 497.25 -0.27, 362.27 -0.43 M362.27 -0.43 C339.94 47.23, 317.61 94.88, 261.95 213.68 M362.27 -0.43 C331.55 65.12, 300.84 130.68, 261.95 213.68 M261.95 213.68 C239.32 163.76, 216.68 113.84, 164.85 -0.49 M261.95 213.68 C226.38 135.24, 190.82 56.79, 164.85 -0.49 M164.85 -0.49 C144.47 -0.49, 124.09 -0.49, 100.39 -0.49 M164.85 -0.49 C150.48 -0.49, 136.11 -0.49, 100.39 -0.49 M100.39 -0.49 C143.63 94.96, 186.87 190.4, 230.07 285.74 M100.39 -0.49 C144.61 97.12, 188.84 194.74, 230.07 285.74 M230.07 285.74 C219 307.74, 207.93 329.75, 178.66 387.94 M230.07 285.74 C213.44 318.8, 196.81 351.86, 178.66 387.94 M178.66 387.94 C134.41 291.87, 90.17 195.8, 0 0 M178.66 387.94 C138.73 301.25, 98.81 214.55, 0 0 M0 0 C0 0, 0 0, 0 0 M0 0 C0 0, 0 0, 0 0" stroke="transparent" stroke-width="1" fill="none"></path></g></g><mask></mask></svg>